<?xml version="1.0" standalone="no"?><!DOCTYPE svg PUBLIC "-//W3C//DTD SVG 1.1//EN" "http://www.w3.org/Graphics/SVG/1.1/DTD/svg11.dtd"><svg t="1624354368219" class="icon" viewBox="0 0 1024 1024" version="1.1" xmlns="http://www.w3.org/2000/svg" p-id="1582" xmlns:xlink="http://www.w3.org/1999/xlink" width="200" height="200"><defs><style type="text/css"></style></defs><path d="M512 1024C229.23264 1024 0 794.76736 0 512 0 229.23264 229.23264 0 512 0s512 229.23264 512 512C1024 794.76736 794.76736 1024 512 1024zM512 92.16C280.12544 92.16 92.16 280.12544 92.16 512c0 231.87456 187.96544 419.84 419.84 419.84 231.87456 0 419.84-187.96544 419.84-419.84C931.84 280.12544 743.87456 92.16 512 92.16zM693.3504 558.88896 441.55904 719.94368l-0.2048-0.32768c-1.792 1.15712-3.67616 2.18112-5.62176 3.09248-0.07168 0.03072-0.14336 0.06144-0.21504 0.09216-1.90464 0.8704-3.87072 1.61792-5.89824 2.23232-0.14336 0.04096-0.28672 0.08192-0.41984 0.12288-0.8704 0.256-1.75104 0.49152-2.65216 0.68608-0.1536 0.04096-0.3072 0.07168-0.4608 0.11264-0.99328 0.21504-2.00704 0.4096-3.03104 0.55296-0.16384 0.02048-0.32768 0.04096-0.49152 0.06144-0.84992 0.11264-1.71008 0.21504-2.57024 0.28672-0.26624 0.02048-0.54272 0.04096-0.80896 0.06144-1.024 0.07168-2.048 0.11264-3.09248 0.11264C389.89824 727.04 368.64 705.35168 368.64 678.59456l0 0 0 0L368.64 355.64544l0 0C368.64 328.88832 389.89824 307.2 416.11264 307.2c9.9328 0 19.1488 3.1232 26.76736 8.43776l250.04032 159.45728C707.18464 483.46112 716.8 499.13856 716.8 517.12 716.8 534.91712 707.3792 550.47168 693.3504 558.88896z" p-id="1583" fill="#ffffff"></path></svg>