<?xml version="1.0" standalone="no"?><!DOCTYPE svg PUBLIC "-//W3C//DTD SVG 1.1//EN" "http://www.w3.org/Graphics/SVG/1.1/DTD/svg11.dtd"><svg t="1624786783975" class="icon" viewBox="0 0 1582 1024" version="1.1" xmlns="http://www.w3.org/2000/svg" p-id="5656" xmlns:xlink="http://www.w3.org/1999/xlink" width="308.984375" height="200"><defs><style type="text/css"></style></defs><path d="M86.574467 1024c47.662502 0 86.388285-38.539601 86.388285-86.202103V572.788774l587.403102 363.892033A50.641409 50.641409 0 0 0 837.81742 893.859027V130.048813a50.641409 50.641409 0 0 0-77.358475-42.82178l-587.403102 363.985124V86.109944A86.388285 86.388285 0 0 0 86.388285 0.000931 86.388285 86.388285 0 0 0 0 86.203034v851.594863c0 47.662502 38.725783 86.202103 86.574467 86.202103M837.81742 525.498635c0 36.677785 41.146144 60.695218 41.146145 60.695218l587.403102 363.985123a50.641409 50.641409 0 0 0 77.358475-42.91487V143.640073a50.641409 50.641409 0 0 0-77.358475-42.821779l-587.403102 363.985123S837.81742 488.727759 837.81742 525.405544z" p-id="5657" fill="#ffffff"></path></svg>